<svg width="150" height="31" viewBox="0 0 150 31" fill="none" xmlns="http://www.w3.org/2000/svg">
<g filter="url(#filter0_d_1_775)">
<line x1="6" y1="4.5" x2="6" y2="20.5" stroke="white" stroke-width="4" stroke-linecap="round"/>
<line x1="16" y1="6.5" x2="16" y2="18.5" stroke="white" stroke-width="4" stroke-linecap="round"/>
<line x1="26" y1="8.5" x2="26" y2="16.5" stroke="white" stroke-width="4" stroke-linecap="round"/>
<path d="M36.816 19V0.849999H46.298V2.819H38.334L39.049 2.236V9.914L38.334 8.924H45.803V10.882H38.334L39.049 9.892V19H36.816ZM54.027 19.352C52.9784 19.352 52.0287 19.0953 51.178 18.582C50.3347 18.0613 49.6637 17.35 49.165 16.448C48.6737 15.546 48.428 14.5157 48.428 13.357C48.428 12.213 48.67 11.1937 49.154 10.299C49.638 9.397 50.3017 8.68567 51.145 8.165C51.9884 7.64433 52.949 7.384 54.027 7.384C54.9804 7.384 55.8494 7.59667 56.634 8.022C57.426 8.44733 58.0384 9.03767 58.471 9.793V7.736H60.605V19H58.471V16.888C57.9797 17.6653 57.349 18.2703 56.579 18.703C55.809 19.1357 54.9584 19.352 54.027 19.352ZM54.599 17.515C55.369 17.515 56.0474 17.339 56.634 16.987C57.228 16.6277 57.6937 16.1363 58.031 15.513C58.3684 14.8897 58.537 14.1747 58.537 13.368C58.537 12.5613 58.3684 11.8463 58.031 11.223C57.6937 10.5997 57.228 10.112 56.634 9.76C56.0474 9.40067 55.369 9.221 54.599 9.221C53.8364 9.221 53.158 9.40067 52.564 9.76C51.97 10.112 51.5007 10.5997 51.156 11.223C50.8187 11.8463 50.65 12.5613 50.65 13.368C50.65 14.1673 50.8187 14.8823 51.156 15.513C51.5007 16.1363 51.97 16.6277 52.564 16.987C53.158 17.339 53.8364 17.515 54.599 17.515ZM65.1085 19V7.736H67.2425V9.386C67.6165 8.73333 68.0932 8.23833 68.6725 7.901C69.2518 7.55633 69.9082 7.384 70.6415 7.384C70.9935 7.384 71.3492 7.428 71.7085 7.516C72.0752 7.59667 72.3905 7.70667 72.6545 7.846L71.7745 9.65C71.5472 9.52533 71.2832 9.42633 70.9825 9.353C70.6818 9.27967 70.3995 9.243 70.1355 9.243C69.6442 9.243 69.1748 9.37133 68.7275 9.628C68.2875 9.87733 67.9282 10.2037 67.6495 10.607C67.3782 11.0103 67.2425 11.443 67.2425 11.905V19H65.1085ZM75.2921 19V7.736H77.4261V9.188C77.9028 8.58667 78.4418 8.13567 79.0431 7.835C79.6444 7.53433 80.3118 7.384 81.0451 7.384C81.9544 7.384 82.7538 7.593 83.4431 8.011C84.1324 8.42167 84.6128 8.98267 84.8841 9.694C85.3534 8.97533 85.9181 8.41067 86.5781 8C87.2381 7.58933 88.0118 7.384 88.8991 7.384C89.7058 7.384 90.4208 7.549 91.0441 7.879C91.6674 8.209 92.1588 8.68567 92.5181 9.309C92.8774 9.93233 93.0571 10.6877 93.0571 11.575V19H90.9231V12.169C90.9231 11.2303 90.6774 10.486 90.1861 9.936C89.6948 9.386 89.0421 9.111 88.2281 9.111C87.6634 9.111 87.1538 9.23567 86.6991 9.485C86.2518 9.727 85.8961 10.046 85.6321 10.442C85.3754 10.8307 85.2471 11.2413 85.2471 11.674V19H83.1131V12.026C83.1131 11.1387 82.8711 10.431 82.3871 9.903C81.9031 9.375 81.2578 9.111 80.4511 9.111C79.8864 9.111 79.3731 9.232 78.9111 9.474C78.4564 9.70867 78.0934 10.0167 77.8221 10.398C77.5581 10.7793 77.4261 11.179 77.4261 11.597V19H75.2921ZM103.615 19L96.003 0.849999H98.533L104.495 15.634L110.457 0.849999H112.976L105.364 19H103.615ZM119.879 19.352C118.698 19.352 117.638 19.0917 116.7 18.571C115.761 18.0503 115.02 17.3427 114.478 16.448C113.935 15.546 113.664 14.5303 113.664 13.401C113.664 12.565 113.818 11.784 114.126 11.058C114.434 10.332 114.863 9.694 115.413 9.144C115.963 8.58667 116.601 8.154 117.327 7.846C118.053 7.538 118.83 7.384 119.659 7.384C120.832 7.384 121.859 7.626 122.739 8.11C123.626 8.594 124.315 9.26867 124.807 10.134C125.305 10.9993 125.555 12.004 125.555 13.148C125.555 13.2433 125.551 13.3203 125.544 13.379C125.536 13.4377 125.522 13.5147 125.5 13.61H115.82C115.82 14.3947 115.996 15.0877 116.348 15.689C116.707 16.2903 117.198 16.7633 117.822 17.108C118.452 17.4453 119.175 17.614 119.989 17.614C120.759 17.614 121.448 17.4563 122.057 17.141C122.665 16.8257 123.193 16.3563 123.641 15.733L125.203 16.547C124.667 17.4343 123.93 18.1237 122.992 18.615C122.06 19.1063 121.023 19.352 119.879 19.352ZM115.93 12.037H123.41C123.307 11.4577 123.08 10.9517 122.728 10.519C122.383 10.079 121.947 9.738 121.419 9.496C120.898 9.24667 120.322 9.122 119.692 9.122C119.032 9.122 118.434 9.243 117.899 9.485C117.371 9.71967 116.934 10.057 116.59 10.497C116.252 10.9297 116.032 11.443 115.93 12.037ZM132.028 19.352C131.089 19.352 130.257 19.1503 129.531 18.747C128.812 18.3363 128.24 17.7533 127.815 16.998L128.838 15.678C129.226 16.3307 129.696 16.8367 130.246 17.196C130.796 17.5553 131.386 17.735 132.017 17.735C132.427 17.735 132.798 17.6543 133.128 17.493C133.465 17.3317 133.733 17.1007 133.931 16.8C134.129 16.492 134.228 16.129 134.228 15.711C134.228 15.3077 134.125 14.9923 133.92 14.765C133.722 14.5303 133.425 14.325 133.029 14.149C132.64 13.973 132.152 13.7713 131.566 13.544C131.096 13.3533 130.642 13.137 130.202 12.895C129.762 12.653 129.399 12.3487 129.113 11.982C128.834 11.608 128.695 11.135 128.695 10.563C128.695 9.947 128.86 9.40067 129.19 8.924C129.527 8.44733 129.989 8.07333 130.576 7.802C131.162 7.53067 131.83 7.395 132.578 7.395C133.186 7.395 133.777 7.516 134.349 7.758C134.921 8 135.463 8.34833 135.977 8.803L135.119 10.101C134.356 9.29433 133.513 8.891 132.589 8.891C132.031 8.891 131.58 9.034 131.236 9.32C130.891 9.59867 130.719 9.96167 130.719 10.409C130.719 10.7537 130.843 11.0433 131.093 11.278C131.342 11.5053 131.661 11.7033 132.05 11.872C132.438 12.0407 132.842 12.2057 133.26 12.367C133.89 12.6017 134.44 12.8437 134.91 13.093C135.386 13.3423 135.757 13.665 136.021 14.061C136.285 14.4497 136.417 14.974 136.417 15.634C136.417 16.404 136.233 17.0677 135.867 17.625C135.507 18.1823 134.998 18.6113 134.338 18.912C133.678 19.2053 132.908 19.352 132.028 19.352ZM142.977 19.352C142.053 19.352 141.334 19.0477 140.821 18.439C140.307 17.823 140.051 16.9613 140.051 15.854V9.353H138.797V7.736H140.051V3.523H142.185V7.736H144.891V9.353H142.185V15.722C142.185 16.2793 142.295 16.7083 142.515 17.009C142.735 17.3097 143.05 17.46 143.461 17.46C143.871 17.46 144.238 17.339 144.561 17.097L145.1 18.802C144.814 18.9707 144.48 19.1027 144.099 19.198C143.725 19.3007 143.351 19.352 142.977 19.352Z" fill="white"/>
</g>
<defs>
<filter id="filter0_d_1_775" x="0" y="0" width="151" height="33" filterUnits="userSpaceOnUse" color-interpolation-filters="sRGB">
<feFlood flood-opacity="0" result="BackgroundImageFix"/>
<feColorMatrix in="SourceAlpha" type="matrix" values="0 0 0 0 0 0 0 0 0 0 0 0 0 0 0 0 0 0 127 0" result="hardAlpha"/>
<feOffset dy="4"/>
<feGaussianBlur stdDeviation="2"/>
<feComposite in2="hardAlpha" operator="out"/>
<feColorMatrix type="matrix" values="0 0 0 0 0 0 0 0 0 0 0 0 0 0 0 0 0 0 0.25 0"/>
<feBlend mode="normal" in2="BackgroundImageFix" result="effect1_dropShadow_1_775"/>
<feBlend mode="normal" in="SourceGraphic" in2="effect1_dropShadow_1_775" result="shape"/>
</filter>
</defs>
</svg>
